<svg xmlns="http://www.w3.org/2000/svg" viewBox="0 0 336 336"><defs><style>.cls-1{fill:#009fe3;}</style></defs><g id="Layer_2" data-name="Layer 2"><g id="integral_sign" data-name="integral sign"><path d="M277.1,6.48a35.93,35.93,0,0,1-7.73,36A57,57,0,0,1,243,150H202v36h41A93,93,0,0,0,277.1,6.48Z"/><path d="M66.63,293.51A57,57,0,0,1,93,186h41V150H93A93,93,0,0,0,58.9,329.52a35.93,35.93,0,0,1,7.73-36Z"/><path class="cls-1" d="M243,0a93.11,93.11,0,0,0-93,93V243a57.06,57.06,0,0,1-57,57,18,18,0,0,0,0,36,93.11,93.11,0,0,0,93-93V93a57.06,57.06,0,0,1,57-57,18,18,0,0,0,0-36Z"/></g></g></svg>