<svg xmlns="http://www.w3.org/2000/svg" viewBox="0 0 880.01 159.83"><defs><style>.cls-1{fill:#fff;}</style></defs><g id="Layer_2" data-name="Layer 2"><g id="integral_sign" data-name="integral sign"><path class="cls-1" d="M121.86,1.16h11.61V82.22H121.86V46.94H76.31V82.22H64.71V1.16h11.6V36.21h45.55Z"/><path class="cls-1" d="M177.22.7h8.15l36.35,81.52H209.84L199,58.2H164.46l-10.13,24H142.4Zm17.05,47.17L181.19,18.51,169.06,47.87Z"/><path class="cls-1" d="M231,82.22V1.16h20.3q12.31,0,19.53,6.09T278,23.73A21.1,21.1,0,0,1,274.46,36a21.05,21.05,0,0,1-10.15,7.72,35.91,35.91,0,0,1,7.6,7A140,140,0,0,1,282.35,66q4.25,6.9,6.79,10.39l4.3,5.8H279.63l-3.54-5.34c-.11-.19-.35-.52-.69-1l-2.26-3.19-3.59-5.92-3.89-6.33a63,63,0,0,0-6.58-8,25.2,25.2,0,0,0-5.41-4.26c-1.6-.86-4.3-1.3-8.1-1.3h-3V82.22ZM246,11h-3.48V36.61H247q8.82,0,12.1-1.51a11.35,11.35,0,0,0,5.11-4.55A13.28,13.28,0,0,0,266,23.62a12.35,12.35,0,0,0-2-6.94,10.85,10.85,0,0,0-5.71-4.38Q254.56,11,246,11Z"/><path class="cls-1" d="M302.72,82.22V1.16H323q12.3,0,19.53,6.09t7.22,16.48A21.1,21.1,0,0,1,346.24,36a21.08,21.08,0,0,1-10.16,7.72,35.94,35.94,0,0,1,7.61,7A142.89,142.89,0,0,1,354.13,66q4.23,6.9,6.79,10.39l4.29,5.8H351.4l-3.53-5.34c-.12-.19-.35-.52-.7-1l-2.26-3.19-3.59-5.92-3.88-6.33a63,63,0,0,0-6.59-8,24.93,24.93,0,0,0-5.4-4.26c-1.61-.86-4.31-1.3-8.1-1.3h-3V82.22ZM317.81,11h-3.48V36.61h4.41q8.82,0,12.09-1.51a11.3,11.3,0,0,0,5.11-4.55,13.19,13.19,0,0,0,1.83-6.93,12.43,12.43,0,0,0-2-6.94A10.87,10.87,0,0,0,330,12.3Q326.33,11,317.81,11Z"/><path class="cls-1" d="M411,1.16h14.08L395.15,39.34V82.22H383.26V39.34L353.32,1.16h14l21.69,28Z"/><path class="cls-1" d="M524.2,1.16h11.6V82.22H524.2V46.94H478.65V82.22H467V1.16h11.61V36.21H524.2Z"/><path class="cls-1" d="M593.45,0q18.78,0,31.28,11.89t12.5,29.83q0,17.93-12.61,29.68T592.81,83.15q-18.31,0-30.53-11.75T550.08,42q0-18.17,12.29-30.06T593.45,0Zm.47,11Q580,11,571,19.73T562.09,42q0,13.11,9,21.82t22.5,8.7q13.56,0,22.63-8.88a29.65,29.65,0,0,0,9.08-22.1,29,29,0,0,0-9.08-21.67A30.76,30.76,0,0,0,593.92,11Z"/><path class="cls-1" d="M715.91,1.16h11V82.22H717L662.76,19.79V82.22H651.85V1.16h9.4l54.66,63Z"/><path class="cls-1" d="M788.09,42.3H815.3V76.65a74.17,74.17,0,0,1-29.7,6.5q-20.15,0-32.18-11.75a38.89,38.89,0,0,1-12-29q0-18.17,12.48-30.23T785.13.12a55.21,55.21,0,0,1,13,1.48A105.79,105.79,0,0,1,813.68,7V18.86q-14.5-8.41-28.78-8.42a30.54,30.54,0,0,0-22.4,9.06,30.11,30.11,0,0,0-9.11,22.22q0,13.81,9.11,22.57t23.44,8.76q7,0,16.66-3.19l1.1-.35V52.63H788.09Z"/><path class="cls-1" d="M0,113.23H6.59v46H0Z"/><path class="cls-1" d="M53.35,113.23h6.26v46H53.94L23.18,123.8v35.43H17v-46h5.34l31,35.73Z"/><path class="cls-1" d="M80.85,140l-5-3a22.88,22.88,0,0,1-6.7-5.66,10.72,10.72,0,0,1-2-6.41A11.32,11.32,0,0,1,70.92,116a14.09,14.09,0,0,1,9.8-3.39,18.52,18.52,0,0,1,10.57,3.23v7.48c-3.32-3.19-6.88-4.79-10.71-4.79a8.84,8.84,0,0,0-5.3,1.5,4.51,4.51,0,0,0-2.07,3.82,5.87,5.87,0,0,0,1.53,3.87,19.39,19.39,0,0,0,4.91,3.79l5,3q8.41,5,8.42,12.8a11.73,11.73,0,0,1-3.71,9,13.53,13.53,0,0,1-9.63,3.46,20.18,20.18,0,0,1-12.41-4.19v-8.36Q72.68,154,79.7,154a7.75,7.75,0,0,0,5.15-1.73,5.4,5.4,0,0,0,2.06-4.31Q86.91,143.73,80.85,140Z"/><path class="cls-1" d="M96.43,113.16h38.43V119h-16v40.21H112.2V119H96.43Z"/><path class="cls-1" d="M141.28,159.23v-46h11.53q7,0,11.08,3.46A11.6,11.6,0,0,1,168,126a11.52,11.52,0,0,1-7.77,11.33,20.24,20.24,0,0,1,4.31,3.95,81,81,0,0,1,5.93,8.73q2.4,3.91,3.85,5.89l2.44,3.29h-7.84l-2-3a6.27,6.27,0,0,0-.39-.56l-1.28-1.81-2-3.36L161,146.88a36.15,36.15,0,0,0-3.73-4.51,14.68,14.68,0,0,0-3.07-2.42,10.4,10.4,0,0,0-4.6-.74h-1.71v20Zm8.56-40.4h-2v14.52h2.5c3.34,0,5.62-.29,6.86-.86a6.44,6.44,0,0,0,2.9-2.58,7.53,7.53,0,0,0,1-3.94A7,7,0,0,0,160,122a6.13,6.13,0,0,0-3.25-2.49A23.48,23.48,0,0,0,149.84,118.83Z"/><path class="cls-1" d="M211.82,113.23h6.62v26.11a30.83,30.83,0,0,1-.78,8,17.27,17.27,0,0,1-1.9,4.49,14.19,14.19,0,0,1-2.79,3.21q-5.46,4.71-14.29,4.71-9,0-14.42-4.67a15.07,15.07,0,0,1-2.79-3.25,16.86,16.86,0,0,1-1.87-4.39,32.21,32.21,0,0,1-.75-8.17v-26h6.62v26.11q0,6.49,1.49,9a10.49,10.49,0,0,0,4.51,4.06,15.53,15.53,0,0,0,7.14,1.54,14.45,14.45,0,0,0,9.55-3.07A9.46,9.46,0,0,0,211,147c.57-1.5.86-4.05.86-7.68Z"/><path class="cls-1" d="M267.21,148.57v7.24a34.44,34.44,0,0,1-16.73,3.95,25.8,25.8,0,0,1-13.07-3.09,22.89,22.89,0,0,1-8.5-8.53,23.24,23.24,0,0,1-3.13-11.76A22.41,22.41,0,0,1,233,119.49a24.55,24.55,0,0,1,17.66-6.85,41.56,41.56,0,0,1,16.11,3.78v7.08a31.75,31.75,0,0,0-15.78-4.61,18.25,18.25,0,0,0-13.12,5,16.57,16.57,0,0,0-5.22,12.5,16.4,16.4,0,0,0,5.14,12.45q5.13,4.88,13.14,4.87A29.83,29.83,0,0,0,267.21,148.57Z"/><path class="cls-1" d="M271.39,113.16h38.44V119h-16v40.21h-6.62V119H271.39Z"/><path class="cls-1" d="M334.24,112.57q10.67,0,17.76,6.75a22.38,22.38,0,0,1,7.09,16.93,22,22,0,0,1-7.16,16.84q-7.15,6.67-18.05,6.67a24,24,0,0,1-17.32-6.67,22.21,22.21,0,0,1-6.93-16.71,22.71,22.71,0,0,1,7-17.06Q323.58,112.57,334.24,112.57Zm.27,6.26a17.82,17.82,0,0,0-13,4.94,16.8,16.8,0,0,0-5.08,12.61,16.51,16.51,0,0,0,5.09,12.38,18.94,18.94,0,0,0,25.62-.1,16.85,16.85,0,0,0,5.15-12.54,16.44,16.44,0,0,0-5.15-12.3A17.46,17.46,0,0,0,334.51,118.83Z"/><path class="cls-1" d="M367.39,159.23v-46h11.53q7,0,11.08,3.46a11.6,11.6,0,0,1,4.1,9.35,11.52,11.52,0,0,1-7.77,11.33,20,20,0,0,1,4.31,3.95,79.49,79.49,0,0,1,5.93,8.73c1.6,2.61,2.89,4.57,3.85,5.89l2.44,3.29H395l-2-3a6.27,6.27,0,0,0-.39-.56l-1.28-1.81-2-3.36-2.21-3.59a35.29,35.29,0,0,0-3.73-4.51,14.43,14.43,0,0,0-3.07-2.42,10.37,10.37,0,0,0-4.6-.74H374v20Zm8.56-40.4h-2v14.52h2.5q5,0,6.87-.86a6.41,6.41,0,0,0,2.89-2.58,7.44,7.44,0,0,0,1-3.94,7,7,0,0,0-1.15-3.93,6.14,6.14,0,0,0-3.24-2.49A23.61,23.61,0,0,0,376,118.83Z"/><path class="cls-1" d="M435.62,159.83l-13.24-47.26h4.79l13.21,47.26Z"/><path class="cls-1" d="M482.19,113.23h6.16v46h-6.62V123.44l-14.14,17.78h-1.22l-14.31-17.78v35.79h-6.59v-46h6.24L467,132.12Z"/><path class="cls-1" d="M513,113h4.63l20.63,46.26h-6.74l-6.13-13.63H505.71L500,159.23h-6.77Zm9.68,26.77-7.42-16.66-6.89,16.66Z"/><path class="cls-1" d="M532.58,113.16H571V119H555v40.21h-6.62V119H532.58Z"/><path class="cls-1" d="M609.67,113.23h6.59v46h-6.59v-20H583.82v20h-6.59v-46h6.59v19.89h25.85Z"/><path class="cls-1" d="M626.4,113.23h26.08v5.86H633v14h18.83V139H633v14.3h20.12v5.86H626.4Z"/><path class="cls-1" d="M696.71,113.23h6.16v46h-6.62V123.44l-14.14,17.78h-1.22l-14.31-17.78v35.79H660v-46h6.24l15.29,18.89Z"/><path class="cls-1" d="M727.47,113h4.63l20.63,46.26H746l-6.13-13.63H720.23l-5.75,13.63h-6.77Zm9.68,26.77-7.42-16.66-6.89,16.66Z"/><path class="cls-1" d="M747.1,113.16h38.43V119h-16v40.21h-6.62V119H747.1Z"/><path class="cls-1" d="M791.82,113.23h6.59v46h-6.59Z"/><path class="cls-1" d="M848.27,148.57v7.24a34.44,34.44,0,0,1-16.73,3.95,25.84,25.84,0,0,1-13.08-3.09,22.79,22.79,0,0,1-8.49-8.53,23.14,23.14,0,0,1-3.13-11.76A22.41,22.41,0,0,1,814,119.49a24.57,24.57,0,0,1,17.67-6.85,41.47,41.47,0,0,1,16.1,3.78v7.08A31.74,31.74,0,0,0,832,118.89a18.28,18.28,0,0,0-13.13,5,17.61,17.61,0,0,0-.08,25,18.33,18.33,0,0,0,13.14,4.87A29.86,29.86,0,0,0,848.27,148.57Z"/><path class="cls-1" d="M867.76,140l-5-3a22.94,22.94,0,0,1-6.71-5.66,10.79,10.79,0,0,1-2-6.41,11.32,11.32,0,0,1,3.77-8.82,14.11,14.11,0,0,1,9.8-3.39,18.52,18.52,0,0,1,10.57,3.23v7.48q-5-4.78-10.7-4.79a8.82,8.82,0,0,0-5.3,1.5,4.5,4.5,0,0,0-2.08,3.82,5.87,5.87,0,0,0,1.53,3.87,19.58,19.58,0,0,0,4.91,3.79l5,3q8.43,5,8.42,12.8a11.72,11.72,0,0,1-3.7,9,13.54,13.54,0,0,1-9.64,3.46,20.18,20.18,0,0,1-12.41-4.19v-8.36Q859.6,154,866.61,154a7.75,7.75,0,0,0,5.15-1.73,5.4,5.4,0,0,0,2.06-4.31Q873.82,143.73,867.76,140Z"/></g></g></svg>